<?xml version="1.0" encoding="UTF-8"?>
<!DOCTYPE svg PUBLIC "-//W3C//DTD SVG 1.1//EN" "http://www.w3.org/Graphics/SVG/1.1/DTD/svg11.dtd">
<!-- Creator: CorelDRAW 2017 -->
<svg xmlns="http://www.w3.org/2000/svg" xml:space="preserve" width="175mm" height="45mm" version="1.1" style="shape-rendering:geometricPrecision; text-rendering:geometricPrecision; image-rendering:optimizeQuality; fill-rule:evenodd; clip-rule:evenodd"
viewBox="0 0 17500 4500"
 xmlns:xlink="http://www.w3.org/1999/xlink">
 <defs>
  <style type="text/css">
   <![CDATA[
    .fil0 {fill:#FEFEFE}
   ]]>
  </style>
 </defs>
 <g id="Camada_x0020_1">
  <metadata id="CorelCorpID_0Corel-Layer"/>
  <g id="_2527515695824">
   <path class="fil0" d="M3327 986c352,96 687,97 1040,93 228,-7 388,-148 519,-270 -129,46 -279,89 -520,88 -196,1 -405,-12 -624,-78 -92,-26 -602,-152 -901,-229 -69,-18 -537,-129 -1117,-23 -199,36 -902,223 -1089,710 -42,94 11,259 47,351 -112,134 -263,297 -325,486 -67,199 -131,383 -104,574 27,134 105,182 188,247 9,124 10,214 38,292 23,59 147,92 206,86 219,-20 534,-138 705,-210 255,-118 445,-318 653,-495 91,-84 171,-185 257,-277 208,-238 396,-502 590,-756 71,-21 200,-21 252,18 37,24 25,164 -8,206 -53,65 -125,126 -207,176 156,-25 259,-108 355,-189 64,-57 99,-131 136,-203 37,-70 37,-153 49,-233 -40,93 -90,167 -175,162l-290 -3 24 -39 -77 4 376 -486zm-2870 1907c-133,-98 -167,-212 -168,-313 5,-346 157,-661 422,-932 61,67 167,107 257,139 -236,312 -492,722 -511,1105zm857 -1059c-101,-5 -202,-12 -303,-32 -219,351 -444,653 -512,1077l33 -9 1 48c424,35 662,-215 836,-355 262,-222 406,-501 559,-766l-26 -23 29 -42c-166,50 -348,102 -555,94 -108,188 -202,337 -425,486 -33,26 -116,7 -120,-28 -4,-58 34,-86 63,-122 10,47 9,97 27,79 172,-106 291,-256 392,-406zm663 -167c-153,64 -388,132 -569,112 60,-139 113,-287 58,-426 142,-147 410,-308 537,-262 84,50 73,139 59,210l-85 366zm-881 46l310 -320c79,137 -5,283 -68,400l-185 -44 -14 -22 -43 -14zm-50 -23c-68,-60 -142,-144 -144,-242l185 -118c116,-77 272,-59 294,20l-336 341zm2190 -738l-426 113 -685 957c-216,359 -604,767 -831,966 -93,72 -169,130 -272,177l-51 -36 -10 65c-102,57 -445,141 -466,-41l-6 -197c386,37 633,-128 821,-273 358,-273 555,-647 735,-1003 94,-36 165,-93 226,-160 56,-63 91,-132 100,-206 3,-60 -50,-103 -97,-120 37,132 -29,301 -133,389l13 -69 -33 4c48,-159 76,-343 12,-448 -90,-125 -290,-43 -394,29 -106,66 -206,137 -296,222 -67,-96 -147,-95 -227,-86 -83,15 -176,78 -256,135l-2 -29 -43 -8c78,-153 174,-276 320,-377 171,-124 369,-188 557,-241 244,-69 632,-56 753,-7 272,91 462,183 692,244z"/>
   <path class="fil0" d="M3610 2503c-160,73 -423,152 -410,376 -168,-102 -183,-298 -173,-458 31,-367 253,-588 421,-750 278,-275 612,-360 772,-284 71,40 117,109 146,178l160 -123c125,-83 305,-102 347,-47 -116,15 -246,138 -334,251l-696 890c284,3 533,-258 641,-404 23,-36 20,-128 -70,-102 38,-96 144,-19 152,66l634 -756 846 -996c162,-156 418,-237 474,-102 -163,-11 -274,138 -397,286l-737 898c290,-124 598,-83 496,271l-154 356c-193,342 -395,435 -678,611 -146,89 -370,217 -609,215l145 -116 74 -396c-63,79 -129,149 -220,220 -110,82 -215,178 -389,171 172,-121 268,-269 343,-425 -199,180 -493,290 -777,403l-117 33 -10 -81 121 -187zm1095 185l443 -272c122,-80 236,-169 315,-277 74,-104 138,-251 151,-378 -74,44 -184,126 -334,107 173,-97 328,-214 360,-384 12,-85 -288,7 -403,131l-456 568c-59,158 -78,336 -76,504zm-1443 -102c-106,-289 122,-585 325,-786 137,-134 278,-257 441,-334 179,-89 258,39 190,124l-104 117c-55,60 -205,110 -285,134 97,6 197,-8 284,-32l-199 281 -187 272 -465 223z"/>
   <path class="fil0" d="M6399 1563c-112,28 -293,67 -259,233 -173,-91 40,-213 100,-236 227,-88 678,-316 679,-138 -71,-35 -194,75 -278,168l-340 423 -400 532c279,-65 509,-230 653,-444 19,-41 13,-75 -92,-79 78,-59 161,8 155,58 -44,181 -340,445 -669,557l-392 136 -14 -74 112 -156 441 -606 302 -372z"/>
   <path class="fil0" d="M6374 1381c206,-94 472,-228 541,-342l75 12 87 119c-177,96 -406,237 -703,212z"/>
   <path class="fil0" d="M6768 2895c-352,-391 -117,-710 15,-937 231,-362 849,-772 1089,-503 117,118 15,307 -36,398 -143,255 -372,527 -669,665 -265,124 -424,170 -399,377zm703 -665c-119,47 -209,83 -365,59 -116,-40 -122,-156 -139,-260 -103,188 -222,415 -112,571l299 -139 318 -231zm340 -493l-158 -5 113 41c-26,154 -198,429 -514,468 -276,11 -88,-446 191,-675 249,-200 449,-174 367,171z"/>
   <path class="fil0" d="M9794 1358c-76,10 -916,183 -589,-80l393 -287c342,-226 793,-209 1078,-170 -132,101 -269,159 -426,210l-278 351c-273,334 -592,622 -729,1023 -42,119 1,248 48,365l-215 540c-553,162 -1077,309 -1664,283 -699,-37 -858,-440 -747,-709 -86,3 -170,87 -173,192 -36,401 455,559 808,577 652,32 1372,-149 1753,-266l2 95c-670,202 -1230,419 -2132,397 -492,-9 -932,-244 -867,-635 -261,286 -63,556 399,648 297,55 613,59 879,48 656,-34 1326,-261 1708,-394 -30,601 671,825 1232,832 1102,30 1586,-932 1166,-1204 866,-222 2249,-152 2007,647 402,-185 104,-668 -473,-773 -527,-96 -1101,-19 -1648,61 -598,-253 -1541,102 -2213,347l13 -100c544,-153 1128,-343 1618,-394 -177,-99 -1081,175 -1597,323l183 -459 49 78c-11,-296 243,-577 436,-854l911 -1216 315 107c434,157 870,244 1334,236l-357 496 -460 603 -154 247 125 296 32 -154 360 -537 319 -415 423 -586 368 -84 -429 557 -531 708 -107 183 -9 162 116 158c47,-227 392,-724 802,-1245l512 -649c123,-80 357,-71 473,19l-1 -77c178,-8 365,-18 512,36 307,412 1415,344 1531,35 658,182 1436,-75 1342,-468 -17,-71 -75,-114 -135,-112 176,466 -721,673 -1178,503 20,-110 -64,-233 -143,-291 -117,-86 -364,-181 -583,-180 -445,-19 -995,128 -1460,325l-207 -2 429 -471c43,-42 113,-60 157,-36 45,-157 -315,-47 -435,77 -130,122 -259,245 -366,395l-30 -20 -84 59 -206 -4 252 -303c88,-99 205,-267 316,-196 3,-200 -433,3 -566,183l-299 351 -637 39 48 68 -1601 -303c-510,-88 -1429,295 -1679,659 -113,455 778,321 957,155zm-699 2163c655,-242 1668,-541 2048,-364 -537,139 -1173,288 -1779,360 302,121 1302,-185 1910,-319 414,190 172,1067 -1012,1127 -634,1 -1198,-321 -1166,-804zm6692 -2630c-452,-212 -1205,-251 -1270,-62 -69,408 1203,321 1270,62zm-1411 -57c-117,-81 -301,-121 -495,-123l387 -129c567,-204 1441,-193 1521,231 -436,-175 -1221,-296 -1414,21zm-1652 207l313 -142 73 0 -6 49 -380 93zm-1465 -107c374,111 787,145 1188,146l-16 43c-367,1 -797,-49 -1172,-189z"/>
   <path class="fil0" d="M12824 2895c-352,-391 -117,-710 15,-937 231,-362 849,-772 1089,-503 117,118 15,307 -36,398 -143,255 -372,527 -669,665 -265,124 -424,170 -399,377zm703 -665c-119,47 -209,83 -365,59 -116,-40 -122,-156 -139,-260 -103,188 -222,415 -112,571l299 -139 318 -231zm340 -493l-158 -5 113 41c-26,154 -198,429 -514,468 -276,11 -88,-446 191,-675 249,-200 449,-174 367,171z"/>
   <path class="fil0" d="M13901 2895c-352,-391 -117,-710 15,-937 231,-362 849,-772 1089,-503 117,118 15,307 -36,398 -143,255 -372,527 -669,665 -265,124 -424,170 -399,377zm703 -665c-119,47 -209,83 -365,59 -116,-40 -122,-156 -139,-260 -103,188 -222,415 -112,571l299 -139 318 -231zm340 -493l-158 -5 113 41c-26,154 -198,429 -514,468 -276,11 -88,-446 191,-675 249,-200 449,-174 367,171z"/>
   <path class="fil0" d="M10662 2506c-160,73 -422,152 -410,376 -168,-102 -183,-298 -173,-458 31,-367 253,-588 421,-750 278,-275 612,-360 772,-284 71,40 117,109 146,178l160 -123c125,-83 305,-102 347,-47 -116,15 -246,137 -334,251l-696 890c285,3 533,-258 641,-404 23,-36 20,-128 -70,-102 31,-78 106,-42 138,20 5,10 9,21 12,32 11,41 -106,193 -173,255 -10,9 -21,18 -31,27 -197,163 -474,266 -743,373l-117 33 -10 -81 121 -187zm-348 84c-106,-289 122,-585 325,-786 137,-134 278,-257 441,-334 179,-89 258,39 190,124l-104 117c-55,60 -205,110 -285,134 97,6 197,-8 284,-32l-199 281 -187 272 -465 223z"/>
  </g>
 </g>
</svg>
